# xmcd
#
# Track frame offsets: 
#        150
#        24036
#        52430
#        78371
#        95937
#        119809
#        141932
#        164415
#        189351
#        210089
#        232909
#        251542
#        270889
#        292620
#        312370
#        332602
#
# Disc length: 4780 seconds
#
# Revision: 0
# Processed by: cddbd v1.5.2PL0 Copyright (c) Steve Scherf et al.
# Submitted via: ExactAudioCopy v0.99pb3
#
DISCID=d812aa10
DTITLE=Ian Moore - Ian Moore
DYEAR=1993
DGENRE=Blues
TTITLE0=Nothing
TTITLE1=Deliver Me
TTITLE2=Carry On
TTITLE3=Dandelion
TTITLE4=Not In Vain
TTITLE5=Muddy Jesus
TTITLE6=Harlem
TTITLE7=Stain
TTITLE8=Revelation
TTITLE9=How Does It Feel
TTITLE10=Train Tracks
TTITLE11=Satisfied
TTITLE12=Please God
TTITLE13=Bar Line 99
TTITLE14=How Long
TTITLE15=Lie
EXTD=
EXTT0=
EXTT1=
EXTT2=
EXTT3=
EXTT4=
EXTT5=
EXTT6=
EXTT7=
EXTT8=
EXTT9=
EXTT10=
EXTT11=
EXTT12=
EXTT13=
EXTT14=
EXTT15=
PLAYORDER=
